# xmcd
# 
# Track frame offsets:
#     150
#     17774
#     33418
#     53198
#     70131
#     86662
#     102246
#     118340
# 
# Disc length: 1799
# 
# Revision: 8
# Processed by: cddbd v1.5.2PL0 Copyright (c) Steve Scherf et al.
# Submitted via: fre:ac v1.0.31
# 
DISCID=68070508
DTITLE=Ilse Delange - Next To Me
DYEAR=2010
DGENRE=Pop
TTITLE0=Next To Me
TTITLE1=Eyes Straight Ahead
TTITLE2=Almost
TTITLE3=Beautiful Distraction
TTITLE4=Carousel
TTITLE5=Untouchable
TTITLE6=Time Out
TTITLE7=Paper Plane
EXTD=
EXTT0=
EXTT1=
EXTT2=
EXTT3=
EXTT4=
EXTT5=
EXTT6=
EXTT7=
PLAYORDER=
